<svg width="248" height="42" viewBox="0 0 248 42" fill="none" xmlns="http://www.w3.org/2000/svg">
<path opacity="0.5" d="M40.0652 2.25672L30.2601 36.9917C30.2102 37.1494 30.0108 37.1967 29.8945 37.0863L23.3301 30.8583L28.2492 13.4514C28.2991 13.2937 28.1495 13.1518 27.9833 13.1991L9.63617 17.8662L3.10498 11.6697C2.98865 11.5593 3.03851 11.3701 3.20469 11.3228L39.7993 2.00444C39.9655 1.97291 40.115 2.11481 40.0652 2.25672Z" fill="#B300AC"/>
<path opacity="0.5" d="M23.3297 30.858L20.8037 39.8452C20.7538 40.0029 20.5544 40.0502 20.4381 39.9398L0.0634003 20.6251C-0.0529313 20.5147 -0.00307518 20.3255 0.163113 20.2782L9.63583 17.8659L23.3297 30.858Z" fill="#B300AC"/>
<path d="M28.2484 13.451L23.3292 30.858L9.63534 17.8658L27.9825 13.1988C28.1487 13.1515 28.2982 13.2934 28.2484 13.451Z" fill="#B300AC"/>
<path d="M59.4013 11.3104H62.5745L67.2468 24.6653L71.9192 11.3104H75.0923L68.5211 29.5H65.9726L59.4013 11.3104ZM57.6898 11.3104H60.8505L61.4252 24.328V29.5H57.6898V11.3104ZM73.6432 11.3104H76.8163V29.5H73.0685V24.328L73.6432 11.3104ZM87.1729 26.4517V20.4302C87.1729 19.9971 87.1021 19.6265 86.9605 19.3183C86.8189 19.0019 86.5982 18.7562 86.2984 18.5813C86.0069 18.4064 85.628 18.3189 85.1616 18.3189C84.7618 18.3189 84.4162 18.3897 84.1247 18.5313C83.8332 18.6645 83.6083 18.8603 83.45 19.1185C83.2918 19.3683 83.2127 19.664 83.2127 20.0054H79.6147C79.6147 19.4308 79.748 18.8853 80.0145 18.3689C80.281 17.8525 80.6683 17.3986 81.1763 17.0072C81.6844 16.6074 82.2882 16.2951 82.9878 16.0702C83.6957 15.8453 84.4869 15.7329 85.3614 15.7329C86.4108 15.7329 87.3436 15.9078 88.1598 16.2576C88.976 16.6074 89.6173 17.1321 90.0837 17.8317C90.5585 18.5313 90.7958 19.4058 90.7958 20.4552V26.2394C90.7958 26.9806 90.8416 27.5886 90.9333 28.0633C91.0249 28.5297 91.1581 28.9378 91.333 29.2876V29.5H87.6976C87.5227 29.1335 87.3895 28.6755 87.2978 28.1258C87.2146 27.5678 87.1729 27.0098 87.1729 26.4517ZM87.6476 21.2672L87.6726 23.3036H85.6613C85.1865 23.3036 84.7743 23.3577 84.4245 23.466C84.0747 23.5742 83.7874 23.7283 83.5625 23.9282C83.3376 24.1198 83.171 24.3446 83.0628 24.6028C82.9628 24.861 82.9129 25.1442 82.9129 25.4523C82.9129 25.7605 82.9836 26.0395 83.1252 26.2893C83.2668 26.5309 83.4709 26.7224 83.7374 26.864C84.0039 26.9973 84.3162 27.0639 84.6743 27.0639C85.2157 27.0639 85.6863 26.9556 86.086 26.7391C86.4858 26.5225 86.794 26.256 87.0105 25.9395C87.2354 25.6231 87.352 25.3232 87.3603 25.0401L88.3098 26.5642C88.1765 26.9057 87.9933 27.2596 87.7601 27.6261C87.5352 27.9925 87.2479 28.3382 86.8981 28.663C86.5483 28.9795 86.1277 29.2418 85.6363 29.45C85.1449 29.6499 84.5619 29.7499 83.8873 29.7499C83.0295 29.7499 82.2507 29.5791 81.5511 29.2377C80.8599 28.8879 80.3102 28.409 79.9021 27.801C79.5023 27.1847 79.3024 26.4851 79.3024 25.7022C79.3024 24.9943 79.4357 24.3654 79.7022 23.8158C79.9687 23.2661 80.3601 22.8038 80.8765 22.4291C81.4012 22.0459 82.055 21.7586 82.8379 21.5671C83.6208 21.3672 84.5286 21.2672 85.5613 21.2672H87.6476ZM97.1672 18.9311V29.5H93.5692V15.9828H96.9548L97.1672 18.9311ZM101.24 15.8953L101.177 19.2309C101.002 19.2059 100.79 19.1851 100.54 19.1684C100.299 19.1434 100.078 19.1309 99.8781 19.1309C99.3701 19.1309 98.9287 19.1976 98.5539 19.3308C98.1874 19.4558 97.8793 19.6432 97.6294 19.893C97.3879 20.1429 97.2047 20.4469 97.0797 20.805C96.9631 21.1631 96.8965 21.5712 96.8798 22.0293L96.1553 21.8044C96.1553 20.9299 96.2427 20.1262 96.4176 19.3933C96.5925 18.6521 96.8465 18.0066 97.1797 17.4569C97.5211 16.9072 97.9376 16.4825 98.429 16.1826C98.9203 15.8828 99.4825 15.7329 100.115 15.7329C100.315 15.7329 100.519 15.7496 100.728 15.7829C100.936 15.8079 101.107 15.8453 101.24 15.8953ZM106.737 15.9828V29.5H103.126V15.9828H106.737ZM102.901 12.4598C102.901 11.9351 103.085 11.502 103.451 11.1605C103.818 10.819 104.309 10.6483 104.925 10.6483C105.533 10.6483 106.02 10.819 106.387 11.1605C106.762 11.502 106.949 11.9351 106.949 12.4598C106.949 12.9845 106.762 13.4176 106.387 13.759C106.02 14.1005 105.533 14.2712 104.925 14.2712C104.309 14.2712 103.818 14.1005 103.451 13.759C103.085 13.4176 102.901 12.9845 102.901 12.4598ZM113.233 18.8686V29.5H109.635V15.9828H113.008L113.233 18.8686ZM112.708 22.2666H111.734C111.734 21.2672 111.863 20.3677 112.121 19.5682C112.379 18.7603 112.742 18.0732 113.208 17.5069C113.674 16.9322 114.228 16.495 114.87 16.1951C115.519 15.887 116.244 15.7329 117.043 15.7329C117.676 15.7329 118.255 15.8245 118.78 16.0077C119.304 16.191 119.754 16.4825 120.129 16.8822C120.512 17.282 120.804 17.8109 121.004 18.4688C121.212 19.1268 121.316 19.9305 121.316 20.8799V29.5H117.693V20.8675C117.693 20.2678 117.61 19.8014 117.443 19.4683C117.276 19.1351 117.031 18.9019 116.706 18.7687C116.389 18.6271 115.998 18.5563 115.532 18.5563C115.049 18.5563 114.628 18.6521 114.27 18.8436C113.92 19.0352 113.629 19.3017 113.395 19.6432C113.17 19.9763 113 20.3677 112.883 20.8175C112.767 21.2672 112.708 21.7503 112.708 22.2666ZM127.85 15.9828V29.5H124.239V15.9828H127.85ZM124.014 12.4598C124.014 11.9351 124.198 11.502 124.564 11.1605C124.93 10.819 125.422 10.6483 126.038 10.6483C126.646 10.6483 127.133 10.819 127.5 11.1605C127.875 11.502 128.062 11.9351 128.062 12.4598C128.062 12.9845 127.875 13.4176 127.5 13.759C127.133 14.1005 126.646 14.2712 126.038 14.2712C125.422 14.2712 124.93 14.1005 124.564 13.759C124.198 13.4176 124.014 12.9845 124.014 12.4598ZM141.579 26.6891V29.5H131.31V26.6891H141.579ZM141.379 18.0566L132.759 29.5H130.348V27.3637L138.931 15.9828H141.379V18.0566ZM140.105 15.9828V18.8061H130.548V15.9828H140.105ZM149.862 29.7499C148.813 29.7499 147.871 29.5833 147.039 29.2501C146.206 28.9087 145.498 28.4381 144.915 27.8385C144.34 27.2388 143.899 26.5434 143.591 25.7521C143.282 24.9526 143.128 24.1031 143.128 23.2036V22.7039C143.128 21.6795 143.274 20.7425 143.566 19.893C143.857 19.0435 144.273 18.3064 144.815 17.6818C145.365 17.0571 146.031 16.5782 146.814 16.2451C147.597 15.9036 148.479 15.7329 149.462 15.7329C150.42 15.7329 151.269 15.8911 152.011 16.2076C152.752 16.5241 153.372 16.9739 153.872 17.5569C154.38 18.1398 154.763 18.8394 155.021 19.6556C155.28 20.4635 155.409 21.363 155.409 22.3541V23.8532H144.665V21.4546H151.873V21.1798C151.873 20.6801 151.782 20.2345 151.598 19.843C151.424 19.4433 151.157 19.1268 150.799 18.8936C150.441 18.6604 149.983 18.5438 149.425 18.5438C148.95 18.5438 148.542 18.6479 148.2 18.8561C147.859 19.0643 147.58 19.3558 147.363 19.7306C147.155 20.1054 146.997 20.5468 146.889 21.0548C146.789 21.5546 146.739 22.1042 146.739 22.7039V23.2036C146.739 23.745 146.814 24.2447 146.964 24.7028C147.122 25.1608 147.343 25.5564 147.626 25.8896C147.917 26.2227 148.267 26.4809 148.675 26.6641C149.092 26.8474 149.562 26.939 150.087 26.939C150.736 26.939 151.34 26.814 151.898 26.5642C152.465 26.306 152.952 25.9187 153.36 25.4024L155.109 27.3013C154.826 27.7094 154.438 28.1008 153.947 28.4756C153.464 28.8504 152.881 29.1585 152.198 29.4001C151.515 29.6333 150.736 29.7499 149.862 29.7499ZM174.598 23.466H178.333C178.258 24.6903 177.921 25.7771 177.321 26.7266C176.73 27.676 175.901 28.4173 174.835 28.9503C173.777 29.4833 172.503 29.7499 171.012 29.7499C169.846 29.7499 168.801 29.55 167.877 29.1502C166.952 28.7421 166.161 28.1591 165.503 27.4012C164.853 26.6433 164.358 25.7272 164.016 24.6528C163.675 23.5784 163.504 22.3749 163.504 21.0424V19.7806C163.504 18.448 163.679 17.2445 164.029 16.1701C164.387 15.0874 164.895 14.1671 165.553 13.4092C166.219 12.6513 167.015 12.0683 167.939 11.6602C168.864 11.2521 169.896 11.0481 171.037 11.0481C172.553 11.0481 173.832 11.3229 174.873 11.8726C175.922 12.4223 176.734 13.1802 177.309 14.1463C177.892 15.1124 178.242 16.2118 178.358 17.4444H174.61C174.569 16.7115 174.423 16.091 174.173 15.583C173.923 15.0666 173.544 14.6793 173.036 14.4211C172.536 14.1546 171.87 14.0214 171.037 14.0214C170.413 14.0214 169.867 14.138 169.401 14.3712C168.934 14.6044 168.543 14.9583 168.226 15.4331C167.91 15.9078 167.673 16.5075 167.514 17.232C167.364 17.9483 167.289 18.7895 167.289 19.7556V21.0424C167.289 21.9835 167.36 22.8122 167.502 23.5284C167.643 24.2364 167.86 24.836 168.151 25.3274C168.451 25.8104 168.834 26.1769 169.301 26.4268C169.776 26.6683 170.346 26.7891 171.012 26.7891C171.795 26.7891 172.441 26.6641 172.949 26.4143C173.457 26.1644 173.844 25.7938 174.111 25.3024C174.385 24.811 174.548 24.1989 174.598 23.466ZM179.995 22.8788V22.6164C179.995 21.6253 180.136 20.7134 180.419 19.8805C180.703 19.0393 181.115 18.3106 181.656 17.6943C182.198 17.078 182.864 16.5991 183.655 16.2576C184.446 15.9078 185.354 15.7329 186.379 15.7329C187.403 15.7329 188.315 15.9078 189.114 16.2576C189.914 16.5991 190.584 17.078 191.126 17.6943C191.675 18.3106 192.092 19.0393 192.375 19.8805C192.658 20.7134 192.8 21.6253 192.8 22.6164V22.8788C192.8 23.8616 192.658 24.7735 192.375 25.6147C192.092 26.4476 191.675 27.1763 191.126 27.801C190.584 28.4173 189.918 28.8962 189.127 29.2377C188.336 29.5791 187.428 29.7499 186.403 29.7499C185.379 29.7499 184.467 29.5791 183.668 29.2377C182.876 28.8962 182.206 28.4173 181.656 27.801C181.115 27.1763 180.703 26.4476 180.419 25.6147C180.136 24.7735 179.995 23.8616 179.995 22.8788ZM183.593 22.6164V22.8788C183.593 23.4451 183.643 23.974 183.743 24.4654C183.842 24.9568 184.001 25.3899 184.217 25.7646C184.442 26.1311 184.734 26.4184 185.092 26.6266C185.45 26.8349 185.887 26.939 186.403 26.939C186.903 26.939 187.332 26.8349 187.69 26.6266C188.048 26.4184 188.336 26.1311 188.552 25.7646C188.769 25.3899 188.927 24.9568 189.027 24.4654C189.135 23.974 189.189 23.4451 189.189 22.8788V22.6164C189.189 22.0668 189.135 21.5504 189.027 21.0673C188.927 20.576 188.765 20.1429 188.54 19.7681C188.323 19.385 188.036 19.0851 187.678 18.8686C187.32 18.6521 186.887 18.5438 186.379 18.5438C185.87 18.5438 185.437 18.6521 185.079 18.8686C184.729 19.0851 184.442 19.385 184.217 19.7681C184.001 20.1429 183.842 20.576 183.743 21.0673C183.643 21.5504 183.593 22.0668 183.593 22.6164ZM198.534 18.8686V29.5H194.936V15.9828H198.309L198.534 18.8686ZM198.009 22.2666H197.035C197.035 21.2672 197.164 20.3677 197.422 19.5682C197.68 18.7603 198.043 18.0732 198.509 17.5069C198.975 16.9322 199.529 16.495 200.171 16.1951C200.82 15.887 201.545 15.7329 202.344 15.7329C202.977 15.7329 203.556 15.8245 204.081 16.0077C204.606 16.191 205.055 16.4825 205.43 16.8822C205.813 17.282 206.105 17.8109 206.305 18.4688C206.513 19.1268 206.617 19.9305 206.617 20.8799V29.5H202.994V20.8675C202.994 20.2678 202.911 19.8014 202.744 19.4683C202.578 19.1351 202.332 18.9019 202.007 18.7687C201.691 18.6271 201.299 18.5563 200.833 18.5563C200.35 18.5563 199.929 18.6521 199.571 18.8436C199.221 19.0352 198.93 19.3017 198.696 19.6432C198.472 19.9763 198.301 20.3677 198.184 20.8175C198.068 21.2672 198.009 21.7503 198.009 22.2666ZM215.974 15.9828V18.5313H208.104V15.9828H215.974ZM210.052 12.6472H213.65V25.4273C213.65 25.8188 213.7 26.1186 213.8 26.3268C213.909 26.535 214.067 26.6808 214.275 26.7641C214.483 26.839 214.746 26.8765 215.062 26.8765C215.287 26.8765 215.487 26.8682 215.662 26.8515C215.845 26.8265 215.999 26.8015 216.124 26.7766L216.136 29.425C215.828 29.525 215.495 29.6041 215.137 29.6624C214.779 29.7207 214.383 29.7499 213.95 29.7499C213.159 29.7499 212.468 29.6208 211.876 29.3626C211.293 29.0961 210.844 28.6713 210.527 28.0883C210.211 27.5053 210.052 26.7391 210.052 25.7896V12.6472ZM221.621 18.9311V29.5H218.023V15.9828H221.408L221.621 18.9311ZM225.693 15.8953L225.631 19.2309C225.456 19.2059 225.244 19.1851 224.994 19.1684C224.752 19.1434 224.532 19.1309 224.332 19.1309C223.824 19.1309 223.382 19.1976 223.007 19.3308C222.641 19.4558 222.333 19.6432 222.083 19.893C221.841 20.1429 221.658 20.4469 221.533 20.805C221.417 21.1631 221.35 21.5712 221.333 22.0293L220.609 21.8044C220.609 20.9299 220.696 20.1262 220.871 19.3933C221.046 18.6521 221.3 18.0066 221.633 17.4569C221.975 16.9072 222.391 16.4825 222.883 16.1826C223.374 15.8828 223.936 15.7329 224.569 15.7329C224.769 15.7329 224.973 15.7496 225.181 15.7829C225.389 15.8079 225.56 15.8453 225.693 15.8953ZM226.443 22.8788V22.6164C226.443 21.6253 226.585 20.7134 226.868 19.8805C227.151 19.0393 227.563 18.3106 228.105 17.6943C228.646 17.078 229.312 16.5991 230.103 16.2576C230.895 15.9078 231.802 15.7329 232.827 15.7329C233.851 15.7329 234.763 15.9078 235.563 16.2576C236.362 16.5991 237.033 17.078 237.574 17.6943C238.124 18.3106 238.54 19.0393 238.823 19.8805C239.107 20.7134 239.248 21.6253 239.248 22.6164V22.8788C239.248 23.8616 239.107 24.7735 238.823 25.6147C238.54 26.4476 238.124 27.1763 237.574 27.801C237.033 28.4173 236.367 28.8962 235.575 29.2377C234.784 29.5791 233.876 29.7499 232.852 29.7499C231.827 29.7499 230.915 29.5791 230.116 29.2377C229.325 28.8962 228.654 28.4173 228.105 27.801C227.563 27.1763 227.151 26.4476 226.868 25.6147C226.585 24.7735 226.443 23.8616 226.443 22.8788ZM230.041 22.6164V22.8788C230.041 23.4451 230.091 23.974 230.191 24.4654C230.291 24.9568 230.449 25.3899 230.666 25.7646C230.89 26.1311 231.182 26.4184 231.54 26.6266C231.898 26.8349 232.335 26.939 232.852 26.939C233.352 26.939 233.78 26.8349 234.139 26.6266C234.497 26.4184 234.784 26.1311 235.001 25.7646C235.217 25.3899 235.375 24.9568 235.475 24.4654C235.584 23.974 235.638 23.4451 235.638 22.8788V22.6164C235.638 22.0668 235.584 21.5504 235.475 21.0673C235.375 20.576 235.213 20.1429 234.988 19.7681C234.772 19.385 234.484 19.0851 234.126 18.8686C233.768 18.6521 233.335 18.5438 232.827 18.5438C232.319 18.5438 231.886 18.6521 231.528 18.8686C231.178 19.0851 230.89 19.385 230.666 19.7681C230.449 20.1429 230.291 20.576 230.191 21.0673C230.091 21.5504 230.041 22.0668 230.041 22.6164ZM245.257 10.311V29.5H241.647V10.311H245.257Z" fill="#E1E1E6"/>
</svg>
